<?xml version="1.0" encoding="UTF-8" standalone="no"?>
<svg
   id="Layer_3"
   data-name="Layer 3"
   viewBox="0 0 128 128"
   version="1.1"
   sodipodi:docname="error.svg"
   inkscape:version="1.4 (86a8ad7, 2024-10-11)"
   xmlns:inkscape="http://www.inkscape.org/namespaces/inkscape"
   xmlns:sodipodi="http://sodipodi.sourceforge.net/DTD/sodipodi-0.dtd"
   xmlns="http://www.w3.org/2000/svg"
   xmlns:svg="http://www.w3.org/2000/svg">
  <defs
     id="defs2" />
  <sodipodi:namedview
     id="namedview2"
     pagecolor="#ffffff"
     bordercolor="#000000"
     borderopacity="0.25"
     inkscape:showpageshadow="2"
     inkscape:pageopacity="0.0"
     inkscape:pagecheckerboard="0"
     inkscape:deskcolor="#d1d1d1"
     inkscape:zoom="9.4921875"
     inkscape:cx="64"
     inkscape:cy="64"
     inkscape:window-width="2560"
     inkscape:window-height="1417"
     inkscape:window-x="1912"
     inkscape:window-y="-8"
     inkscape:window-maximized="1"
     inkscape:current-layer="Layer_3" />
  <title
     id="title1">Artboard 101</title>
  <path
     d="M64,21.433A42.567,42.567,0,1,0,106.567,64,42.615,42.615,0,0,0,64,21.433Zm0,80.912A38.345,38.345,0,1,1,102.345,64,38.389,38.389,0,0,1,64,102.345Z"
     id="path1"
     style="fill:#ff0000;fill-opacity:1" />
  <path
     d="M79.459,48.3a2.11,2.11,0,0,0-2.985,0L64,60.778,51.523,48.3a2.111,2.111,0,1,0-2.985,2.985L61.014,63.763,48.541,76.237a2.111,2.111,0,1,0,2.985,2.985L64,66.748,76.474,79.222a2.111,2.111,0,0,0,2.985-2.985L66.984,63.763,79.459,51.286A2.11,2.11,0,0,0,79.459,48.3Z"
     id="path2"
     style="stroke:#ff0000;stroke-opacity:1;fill:#ff0000;fill-opacity:1" />
</svg>
