<?xml version="1.0" encoding="UTF-8" standalone="no"?>
<!-- Creator: CorelDRAW -->

<svg
   xml:space="preserve"
   width="2048px"
   height="2048px"
   style="shape-rendering:geometricPrecision; text-rendering:geometricPrecision; image-rendering:optimizeQuality; fill-rule:evenodd; clip-rule:evenodd"
   viewBox="0 0 2048 2048"
   version="1.1"
   id="svg10"
   sodipodi:docname="select-file-icon.svg"
   inkscape:version="1.4 (86a8ad7, 2024-10-11)"
   xmlns:inkscape="http://www.inkscape.org/namespaces/inkscape"
   xmlns:sodipodi="http://sodipodi.sourceforge.net/DTD/sodipodi-0.dtd"
   xmlns="http://www.w3.org/2000/svg"
   xmlns:svg="http://www.w3.org/2000/svg"><sodipodi:namedview
   id="namedview10"
   pagecolor="#ffffff"
   bordercolor="#000000"
   borderopacity="0.25"
   inkscape:showpageshadow="2"
   inkscape:pageopacity="0.0"
   inkscape:pagecheckerboard="0"
   inkscape:deskcolor="#d1d1d1"
   showgrid="true"
   inkscape:zoom="0.59326172"
   inkscape:cx="1024.8428"
   inkscape:cy="981.86008"
   inkscape:window-width="2560"
   inkscape:window-height="1417"
   inkscape:window-x="1912"
   inkscape:window-y="-8"
   inkscape:window-maximized="1"
   inkscape:current-layer="Layer_x0020_1"><inkscape:grid
     id="grid12"
     units="px"
     originx="0"
     originy="0"
     spacingx="1"
     spacingy="1"
     empcolor="#0099e5"
     empopacity="0.30196078"
     color="#0099e5"
     opacity="0.14902"
     empspacing="5"
     enabled="true"
     visible="true"
     snapvisiblegridlinesonly="true" /></sodipodi:namedview>
 <defs
   id="defs1">
  <style
   type="text/css"
   id="style1">
   <![CDATA[
    .fil2 {fill:none}
    .fil0 {fill:#424242}
    .fil1 {fill:#424242;fill-rule:nonzero}
   ]]>
  </style>
 </defs>
 <g
   id="Layer_x0020_1"
   inkscape:label="Layer 1">
  <metadata
   id="CorelCorpID_0Corel-Layer" />
  <path
   class="fil0"
   d="m 163.20144,374.87335 h 1715.83286 38.9972 v 38.99719 233.97722 38.99717 H 1879.0343 163.20144 124.20425 V 647.84776 413.87054 374.87335 Z M 572.66157,491.86208 H 1781.5462 v 77.99436 H 572.66157 Z m -311.96841,0 h 233.97722 v 77.99436 H 260.69316 Z"
   id="path1"
   style="stroke-width:1.21863;fill:#000000;fill-opacity:1" />
  
  
  <polygon
   class="fil1"
   points="657.714,287.998 1649.72,287.998 1649.72,351.999 657.714,351.999 "
   id="polygon3"
   transform="matrix(1.2186314,0,0,1.2186314,-226.75939,-132.07486)"
   style="fill:#000000;fill-opacity:1" />
  <polygon
   class="fil1"
   points="401.714,287.998 593.715,287.998 593.715,351.999 401.714,351.999 "
   id="polygon4"
   transform="matrix(1.2186314,0,0,1.2186314,-226.75939,-132.07486)"
   style="fill:#000000;fill-opacity:1" />
  <polygon
   class="fil1"
   points="657.714,735.993 1649.72,735.993 1649.72,799.994 657.714,799.994 "
   id="polygon5"
   transform="matrix(1.2186314,0,0,1.2186314,-226.75939,-132.07486)"
   style="fill:#000000;fill-opacity:1" />
  <polygon
   class="fil1"
   points="401.714,735.993 593.715,735.993 593.715,799.994 401.714,799.994 "
   id="polygon6"
   transform="matrix(1.2186314,0,0,1.2186314,-226.75939,-132.07486)"
   style="fill:#000000;fill-opacity:1" />
  <polygon
   class="fil1"
   points="657.714,959.99 1649.72,959.99 1649.72,1023.99 657.714,1023.99 "
   id="polygon7"
   transform="matrix(1.2186314,0,0,1.2186314,-226.75939,-132.07486)"
   style="fill:#000000;fill-opacity:1" />
  <polygon
   class="fil1"
   points="401.714,959.99 593.715,959.99 593.715,1023.99 401.714,1023.99 "
   id="polygon8"
   transform="matrix(1.2186314,0,0,1.2186314,-226.75939,-132.07486)"
   style="fill:#000000;fill-opacity:1" />
  <polygon
   class="fil1"
   points="657.714,1183.99 1649.72,1183.99 1649.72,1247.99 657.714,1247.99 "
   id="polygon9"
   transform="matrix(1.2186314,0,0,1.2186314,-226.75939,-132.07486)"
   style="fill:#000000;fill-opacity:1" />
  <polygon
   class="fil1"
   points="401.714,1183.99 593.715,1183.99 593.715,1247.99 401.714,1247.99 "
   id="polygon10"
   transform="matrix(1.2186314,0,0,1.2186314,-226.75939,-132.07486)"
   style="fill:#000000;fill-opacity:1" />
 <rect
   style="fill:#000000;fill-opacity:1;stroke-width:1.03696"
   id="rect12"
   width="145.07478"
   height="742.85278"
   x="1386.6697"
   y="1109.6179" /><rect
   style="clip-rule:evenodd;fill:#000000;fill-opacity:1;fill-rule:evenodd;stroke-width:1.03696;image-rendering:optimizeQuality;shape-rendering:geometricPrecision;text-rendering:geometricPrecision"
   id="rect12-9"
   width="742.85327"
   height="145.07527"
   x="1089.9828"
   y="1405.8047" /><rect
   style="fill:#ffffff;fill-opacity:0;stroke:#000000;stroke-width:95.4482;stroke-dasharray:none;stroke-opacity:1"
   id="rect1"
   width="1880.5353"
   height="1863.9536"
   x="86.533974"
   y="86.474686"
   ry="114.1196" /></g>
 <rect
   class="fil2"
   width="2048"
   height="2048"
   id="rect10" />
</svg>
