<?xml version="1.0" encoding="UTF-8" standalone="no"?>
<!-- Creator: CorelDRAW -->

<svg
   xml:space="preserve"
   width="2048px"
   height="2048px"
   style="shape-rendering:geometricPrecision; text-rendering:geometricPrecision; image-rendering:optimizeQuality; fill-rule:evenodd; clip-rule:evenodd"
   viewBox="0 0 2048 2048"
   version="1.1"
   id="svg2"
   sodipodi:docname="warning.svg"
   inkscape:version="1.4 (86a8ad7, 2024-10-11)"
   xmlns:inkscape="http://www.inkscape.org/namespaces/inkscape"
   xmlns:sodipodi="http://sodipodi.sourceforge.net/DTD/sodipodi-0.dtd"
   xmlns="http://www.w3.org/2000/svg"
   xmlns:svg="http://www.w3.org/2000/svg"><sodipodi:namedview
   id="namedview2"
   pagecolor="#ffffff"
   bordercolor="#000000"
   borderopacity="0.25"
   inkscape:showpageshadow="2"
   inkscape:pageopacity="0.0"
   inkscape:pagecheckerboard="0"
   inkscape:deskcolor="#d1d1d1"
   inkscape:zoom="0.59326172"
   inkscape:cx="1024"
   inkscape:cy="1024"
   inkscape:window-width="2560"
   inkscape:window-height="1417"
   inkscape:window-x="1912"
   inkscape:window-y="-8"
   inkscape:window-maximized="1"
   inkscape:current-layer="Layer_x0020_1" />
 <defs
   id="defs1">
  <style
   type="text/css"
   id="style1">
   <![CDATA[
    .fil3 {fill:none}
    .fil0 {fill:#959595}
    .fil1 {fill:#FBFBFC}
    .fil2 {fill:#959595;fill-rule:nonzero}
   ]]>
  </style>
 </defs>
 <g
   id="Layer_x0020_1"
   inkscape:label="Layer 1">
  <metadata
   id="CorelCorpID_0Corel-Layer" />
  <g
   id="_461238856">
   <path
   id="_461239024"
   class="fil0"
   d="M1186.02 320.696l340.392 594.466 339.244 592.464 1.00039 1.99961c16.6453,34.4516 23.1201,68.7922 21.5906,101.084 -1.72441,36.4229 -13.5803,69.9319 -32.511,97.9217 -18.9414,28.0063 -45.0437,50.6138 -75.2386,65.204 -26.2701,12.6921 -55.6524,19.2957 -86.152,18.1051l0 0.0614174 -670.348 0 -673.714 0 -1.12559 -0.125197c-30.5693,-1.09016 -59.0304,-8.67638 -84.0709,-21.365 -32.3729,-16.4032 -59.113,-41.3221 -77.4508,-71.7993 -18.2929,-30.4016 -28.1362,-66.2823 -26.7662,-104.689 1.05473,-29.5607 8.7319,-60.4241 24.3012,-91.1528l0.750001 -1.5 335.661 -586.208 342.472 -598.099 3.49961 -4.87441c14.661,-17.1154 30.5658,-31.35 47.2441,-42.7926 38.0516,-26.1059 80.1201,-37.6949 120.9,-35.9008 41.1449,1.81181 80.6505,17.2311 113.185,45.1016 13.2307,11.3327 25.2768,24.6874 35.7638,39.9744l1.3748 2.1248z"
   style="fill:#ffd300;fill-opacity:1" />
   <path
   id="_461238904"
   class="fil1"
   d="M1104.01 370.659c-4.67835,-7.21064 -11.0787,-13.5874 -17.5772,-19.1551 -15.5906,-13.3547 -34.4339,-21.1996 -54.9544,-22.1032 -22.4835,-0.988583 -43.9583,6.52323 -62.3693,19.1551 -7.01693,4.81418 -18.5445,12.6177 -23.5713,19.6205l-0.623623 0.868111 -674.312 1177.63c-7.78819,15.8055 -13.161,33.0721 -13.7929,50.7662 -0.649607,18.2114 3.67205,36.1288 13.0854,51.7725 9.21851,15.3213 22.6406,27.5811 38.5855,35.6599 12.887,6.53032 32.1579,9.36851 47.2158,11.1248l1342.4 0.011811c14.0965,0.550394 27.9567,-2.4874 40.6441,-8.61733 15.078,-7.28504 28.1079,-18.6851 37.4835,-32.5477 9.8067,-14.5004 15.3106,-31.1988 16.1386,-48.6815 0.884646,-18.6815 -3.0626,-36.463 -11.3551,-53.191l-676.993 -1182.32z" />
  </g>
  <path
   class="fil2"
   d="M1024.6 1303.87c15.7181,0 30.5303,2.85709 44.4012,8.59961 13.8118,5.71772 26.2925,14.1685 37.4044,25.3772 11.25,11.25 19.7457,23.7697 25.454,37.5225 5.76851,13.898 8.6693,28.7811 8.6693,44.615 0,15.7547 -2.89843,30.5351 -8.65985,44.3351 -5.72245,13.7079 -14.2217,26.1851 -25.4634,37.4268 -11.1118,11.2087 -23.5914,19.6606 -37.4032,25.3772 -13.8721,5.74252 -28.6831,8.59961 -44.4024,8.59961 -15.678,0 -30.4642,-2.84646 -44.3552,-8.57127 -13.8118,-5.68937 -26.3268,-14.1154 -37.5378,-25.304l-0.100394 -0.101575c-11.1732,-11.2724 -19.6347,-23.7673 -25.3169,-37.4764 -5.72363,-13.8036 -8.61615,-28.5697 -8.61615,-44.2855 0,-15.5752 2.86299,-30.365 8.58662,-44.2725 5.64331,-13.7091 13.9973,-26.204 25.0571,-37.3843l-0.0011811 -0.0011811c11.1721,-11.3906 23.6693,-19.9807 37.5189,-25.7681 13.865,-5.79213 28.7788,-8.6882 44.765,-8.6882z"
   id="path1"
   style="fill:#ffd300;fill-opacity:1" />
  <path
   class="fil2"
   d="M1036.71 1271.63l-23.6729 0 -24.2173 0 -1.44331 -24.2516c-1.26142,-21.202 -3.88465,-44.3811 -7.86615,-69.5776l-0.0153543 0.00236221c-4.063,-25.6831 -9.55867,-53.7496 -16.4847,-84.2422l-28.2969 -124.56c-8.48505,-37.6949 -14.9209,-70.33 -19.2827,-97.9595 -4.49882,-28.4941 -6.76064,-51.3284 -6.76064,-68.5477 0,-17.3811 2.58071,-33.411 7.71024,-48.0815 5.28426,-15.1087 13.2685,-28.4764 23.9173,-40.0961l0.101575 -0.100394c10.9099,-11.7756 23.5087,-20.5536 37.728,-26.3941 14.178,-5.8252 29.5937,-8.70591 46.1918,-8.70591 16.4102,0 31.578,2.91378 45.5587,8.77205 14.1307,5.92087 26.7107,14.7165 37.7929,26.4142l-0.00236221 0.00354331c10.9748,11.4886 19.2047,24.6343 24.7146,39.4075 5.4378,14.5748 8.14253,30.3248 8.14253,47.2181 0,15.6555 -2.40118,37.8083 -7.17638,66.4819 -4.54134,27.254 -11.3941,61.1115 -20.5323,101.588l0 0.101575 -28.6677 124.559c-4.92993,21.4819 -9.19135,44.9563 -12.7996,70.4599 -3.59528,25.4244 -6.58229,53.3339 -8.97757,83.7603l-1.86969 23.7484 -23.7921 0z"
   id="path2"
   style="fill:#ffd300;fill-opacity:1" />
  <rect
   class="fil3"
   width="2048"
   height="2048"
   id="rect2" />
 </g>
</svg>
